<?xml version="1.0" standalone="no"?>
<!DOCTYPE svg PUBLIC "-//W3C//DTD SVG 1.1//EN" "http://www.w3.org/Graphics/SVG/1.1/DTD/svg11.dtd">
<svg width="420" height="88" viewBox="0 0 420 88" fill="none" xmlns="http://www.w3.org/2000/svg">
<mask id="mask0_101_342" style="mask-type:luminance" maskUnits="userSpaceOnUse" x="0" y="0" width="420" height="88">
<path d="M419.4 0.0693359H0V87.4443H419.4V0.0693359Z" fill="white"/>
</mask>
<g mask="url(#mask0_101_342)">
<path d="M56.0365 7.64354L78.1709 33.9516C88.4649 46.1868 79.7556 64.8574 63.7539 64.8574H19.4851C3.48343 64.8574 -5.22647 46.1868 5.06754 33.9516L27.2025 7.64354C34.7276 -1.30053 48.5115 -1.30053 56.0365 7.64354Z" fill="#448D3E"/>
<path d="M65.4323 18.811L56.0365 7.64345C48.5114 -1.30063 34.7275 -1.30063 27.2024 7.64345L17.8061 18.811H65.4323Z" fill="#375968"/>
<path d="M4.76263 57.7989C8.0898 62.0048 13.2301 64.8574 19.4851 64.8574H63.754C70.0085 64.8574 75.1493 62.0048 78.4765 57.7989H4.76263Z" fill="#375968"/>
<path d="M10.9455 75.6403C8.42653 80.2337 3.51688 82.3888 1.88643 81.4972C0.296936 80.6276 -0.569478 75.3131 1.94947 70.7197C4.46842 66.1269 7.60539 65.1798 10.0899 66.5385C12.5738 67.8973 13.4639 71.0474 10.9455 75.6403Z" fill="#F68424"/>
<path d="M72.2937 75.6403C74.8126 80.2337 79.7217 82.3888 81.3522 81.4972C82.9422 80.6276 83.8081 75.3131 81.2891 70.7197C78.7707 66.1269 75.6332 65.1798 73.1493 66.5385C70.6648 67.8973 69.7747 71.0474 72.2937 75.6403Z" fill="#F68424"/>
<path d="M46.7474 77.0959C46.7474 82.3329 43.4784 86.5781 41.6195 86.5781C39.8064 86.5781 36.4911 82.3329 36.4911 77.0959C36.4911 71.859 38.787 69.523 41.6195 69.523C44.4515 69.523 46.7474 71.859 46.7474 77.0959Z" fill="#F68424"/>
<path d="M10.0899 66.5388C7.68361 65.2226 4.66571 66.0808 2.18933 70.3105C5.4055 71.1768 8.74345 71.9415 12.1892 72.5942C12.9413 69.6432 11.9785 67.5714 10.0899 66.5388Z" fill="#EF5236"/>
<path d="M73.1492 66.5388C71.2602 67.5714 70.2978 69.6432 71.05 72.5942C74.4952 71.9415 77.8331 71.1768 81.0493 70.3105C78.5735 66.0808 75.5556 65.2226 73.1492 66.5388Z" fill="#EF5236"/>
<path d="M41.6195 69.5229C39.1549 69.5229 37.0983 71.2934 36.6053 75.2028C38.2648 75.2523 39.9357 75.2803 41.6195 75.2803C43.3033 75.2803 44.9741 75.2523 46.6337 75.2028C46.1407 71.2934 44.084 69.5229 41.6195 69.5229Z" fill="#EF5236"/>
<path d="M50.4302 47.3249C55.2962 42.4657 55.2962 34.5871 50.4318 29.7273C48.2194 33.1853 45.6013 36.4592 42.5759 39.4807C39.5505 42.5023 36.2723 45.117 32.8099 47.3265C37.676 52.1847 45.5647 52.1841 50.4302 47.3249Z" fill="#9BD5BD"/>
<path d="M50.4319 29.7275L50.4302 29.7259C45.5642 24.8661 37.6749 24.8661 32.8084 29.7259C27.9424 34.5856 27.9424 42.4653 32.8084 47.325L32.81 47.3267C36.2724 45.1171 39.5505 42.5024 42.576 39.4809C45.6014 36.4593 48.2195 33.1854 50.4319 29.7275Z" fill="#DBC9E9"/>
<path d="M50.4319 29.7275L50.4302 29.7259C45.5642 24.8661 37.6749 24.8661 32.8084 29.7259C27.9424 34.5856 27.9424 42.4653 32.8084 47.325L32.81 47.3267C36.2724 45.1171 39.5505 42.5024 42.576 39.4809C45.6014 36.4593 48.2195 33.1854 50.4319 29.7275Z" fill="white"/>
<path d="M112.374 62.5624H103.449L109.039 16.691H119.043L130.06 50.2212L141.044 16.691H151.048L156.67 62.5952H147.713L144.378 30.8602L133.949 62.5624H126.268L115.839 30.8602L112.374 62.5624Z" fill="#448D3E"/>
<path d="M185.097 54.1884C186.602 53.3285 187.788 52.143 188.661 50.6293C189.531 49.1166 189.969 47.4135 189.969 45.5204C189.969 43.6267 189.531 41.9123 188.661 40.3781C187.788 38.8434 186.602 37.6412 185.097 36.77C183.594 35.9004 181.938 35.464 180.128 35.464C178.341 35.464 176.706 35.9004 175.225 36.77C173.742 37.6412 172.576 38.8434 171.726 40.3781C170.876 41.9123 170.451 43.6267 170.451 45.5204C170.451 47.4135 170.876 49.122 171.726 50.6454C172.576 52.1699 173.737 53.3554 175.209 54.2045C176.679 55.0531 178.32 55.4777 180.128 55.4777C181.938 55.4777 183.594 55.0488 185.097 54.1884ZM190.556 28.3463H197.814V62.5626H190.524L189.936 58.5471C188.629 60.0485 187.092 61.2297 185.327 62.0896C183.562 62.949 181.589 63.3789 179.41 63.3789C176.314 63.3789 173.442 62.5787 170.795 60.9789C168.147 59.3796 166.05 57.2142 164.502 54.4827C162.954 51.7507 162.182 48.7518 162.182 45.4875C162.182 42.2222 162.961 39.2244 164.518 36.4923C166.077 33.7608 168.175 31.5955 170.811 29.9956C173.448 28.3963 176.314 27.5961 179.41 27.5961C181.633 27.5961 183.631 28.0315 185.408 28.9016C187.184 29.7723 188.727 30.9696 190.034 32.493L190.556 28.3463Z" fill="#448D3E"/>
<path d="M226.856 52.4091C228.25 51.6035 229.341 50.5101 230.126 49.1271C230.91 47.7457 231.303 46.2169 231.303 44.5402C231.303 42.7988 230.91 41.2108 230.126 39.774C229.341 38.3373 228.246 37.2002 226.84 36.3613C225.434 35.5245 223.859 35.1042 222.116 35.1042C220.373 35.1042 218.809 35.5191 217.426 36.3452C216.04 37.1733 214.963 38.2991 214.188 39.724C213.415 41.15 213.028 42.7122 213.028 44.4099C213.028 46.1292 213.415 47.686 214.188 49.0787C214.963 50.4718 216.04 51.5766 217.426 52.3929C218.809 53.2093 220.373 53.6161 222.116 53.6161C223.882 53.6161 225.462 53.2146 226.856 52.4091ZM232.316 28.3137H239.215V57.5018C239.215 60.9189 238.565 63.9442 237.268 66.5783C235.972 69.2113 234.01 71.2739 231.384 72.7651C228.758 74.2556 225.516 75.0015 221.659 75.0015C219.109 75.0015 216.482 74.6641 213.78 73.9893C211.078 73.3145 208.877 72.4336 207.177 71.3455L210.282 64.8482C213.704 66.6972 217.223 67.6228 220.842 67.6228C223.107 67.6228 224.999 67.188 226.513 66.3173C228.028 65.4466 229.151 64.2655 229.88 62.7749C230.61 61.2837 230.976 59.6021 230.976 57.7305V56.9465C229.712 58.2089 228.258 59.1888 226.612 59.8852C224.966 60.582 223.129 60.9297 221.103 60.9297C218.073 60.9297 215.311 60.228 212.816 58.824C210.32 57.4206 208.348 55.4774 206.899 52.9967C205.449 50.5154 204.725 47.7296 204.725 44.6386C204.725 41.6133 205.454 38.7887 206.915 36.1665C208.375 33.5432 210.358 31.4536 212.864 29.8974C215.371 28.3417 218.129 27.5631 221.136 27.5631C223.315 27.5631 225.265 27.9769 226.988 28.8039C228.708 29.631 230.213 30.7842 231.498 32.2646L232.316 28.3137Z" fill="#448D3E"/>
<path d="M256.636 62.5625H248.299V28.3139H256.636V62.5625ZM249.821 21.8005C249.025 21.3324 248.405 20.7178 247.958 19.9553C247.51 19.1944 247.287 18.3889 247.287 17.5397C247.287 16.6911 247.51 15.8801 247.958 15.1074C248.405 14.3352 249.025 13.7094 249.821 13.231C250.616 12.752 251.515 12.5121 252.517 12.5121C253.521 12.5121 254.419 12.752 255.215 13.231C256.01 13.7094 256.631 14.3352 257.077 15.1074C257.524 15.8801 257.748 16.6911 257.748 17.5397C257.748 18.3889 257.524 19.1944 257.077 19.9553C256.631 20.7178 256.01 21.3324 255.215 21.8005C254.419 22.2692 253.521 22.5028 252.517 22.5028C251.515 22.5028 250.616 22.2692 249.821 21.8005Z" fill="#448D3E"/>
<path d="M272.192 61.0936C269.467 59.4835 267.325 57.3063 265.767 54.564C264.209 51.8212 263.43 48.8287 263.43 45.585C263.43 42.3207 264.215 39.3121 265.783 36.5575C267.352 33.8045 269.499 31.6229 272.224 30.0118C274.947 28.4018 277.977 27.5962 281.311 27.5962C283.796 27.5962 286.094 28.0148 288.21 28.8532C290.322 29.6911 292.187 30.8496 293.8 32.3295L289.615 38.3048C288.438 37.2818 287.217 36.5091 285.953 35.9871C284.689 35.464 283.284 35.203 281.736 35.203C279.928 35.203 278.255 35.6545 276.718 36.5575C275.183 37.4615 273.962 38.7078 273.058 40.2963C272.152 41.8854 271.7 43.6483 271.7 45.585C271.7 47.5012 272.157 49.2426 273.074 50.809C273.989 52.3766 275.215 53.6121 276.751 54.515C278.287 55.418 279.95 55.8695 281.736 55.8695C283.284 55.8695 284.694 55.6085 285.97 55.086C287.245 54.564 288.47 53.8128 289.648 52.8334L293.8 58.7753C292.208 60.2557 290.346 61.4148 288.21 62.2532C286.073 63.09 283.785 63.5103 281.344 63.5103C277.966 63.5103 274.915 62.7036 272.192 61.0936Z" fill="#448D3E"/>
<path d="M322.058 39.284C323.582 39.284 324.935 38.9687 326.112 38.3375C327.288 37.7062 328.208 36.8302 328.874 35.7087C329.539 34.5878 329.872 33.2985 329.872 31.8402C329.872 30.425 329.545 29.1792 328.89 28.1019C328.237 27.0246 327.315 26.1916 326.129 25.6039C324.941 25.0169 323.582 24.7225 322.058 24.7225H313.721V39.284H322.058ZM304.862 62.5625V16.6911H322.646C325.872 16.6911 328.7 17.3331 331.13 18.617C333.559 19.902 335.434 21.6811 336.753 23.9551C338.071 26.2298 338.731 28.837 338.731 31.7751C338.731 34.8661 338.092 37.5862 336.818 39.9367C335.543 42.2883 333.7 44.105 331.293 45.389C328.885 46.674 326.034 47.316 322.745 47.316H313.721V62.5625H304.862Z" fill="#448D3E"/>
<path d="M365.408 54.3515C366.9 53.47 368.083 52.2566 368.954 50.7116C369.826 49.1667 370.263 47.4582 370.263 45.585C370.263 43.6913 369.826 41.9731 368.954 40.4271C368.083 38.8822 366.896 37.6628 365.392 36.77C363.887 35.8778 362.242 35.4317 360.455 35.4317C358.647 35.4317 356.996 35.8778 355.502 36.77C354.01 37.6628 352.827 38.8822 351.956 40.4271C351.084 41.9731 350.649 43.6913 350.649 45.585C350.649 47.4786 351.084 49.1925 351.956 50.7278C352.827 52.262 354.01 53.47 355.502 54.3515C356.996 55.2329 358.647 55.6736 360.455 55.6736C362.264 55.6736 363.915 55.2329 365.408 54.3515ZM351.285 61.1097C348.529 59.5099 346.35 57.3445 344.747 54.6125C343.146 51.882 342.344 48.8831 342.344 45.6178C342.344 42.3315 343.146 39.3062 344.747 36.5413C346.35 33.7781 348.534 31.5955 351.303 29.9957C354.069 28.3964 357.12 27.5962 360.455 27.5962C363.79 27.5962 366.84 28.4018 369.609 30.0118C372.376 31.6229 374.562 33.8045 376.164 36.5575C377.765 39.3121 378.566 42.3315 378.566 45.6178C378.566 48.8831 377.765 51.8863 376.164 54.6291C374.562 57.3714 372.372 59.5379 369.593 61.1258C366.813 62.7144 363.747 63.5103 360.39 63.5103C357.077 63.5103 354.042 62.7101 351.285 61.1097Z" fill="#448D3E"/>
<path d="M406.321 54.1884C407.825 53.3285 409.011 52.143 409.885 50.6293C410.755 49.1166 411.192 47.4135 411.192 45.5204C411.192 43.6267 410.755 41.9123 409.885 40.3781C409.011 38.8434 407.825 37.6412 406.321 36.77C404.818 35.9004 403.161 35.464 401.351 35.464C399.564 35.464 397.93 35.9004 396.449 36.77C394.966 37.6412 393.799 38.8434 392.949 40.3781C392.099 41.9123 391.675 43.6267 391.675 45.5204C391.675 47.4135 392.099 49.122 392.949 50.6454C393.799 52.1699 394.96 53.3554 396.432 54.2045C397.903 55.0531 399.543 55.4777 401.351 55.4777C403.161 55.4777 404.818 55.0488 406.321 54.1884ZM410.635 14.4058H419.037V62.5626H411.748L411.16 58.5471C409.852 60.0485 408.315 61.2297 406.55 62.0896C404.785 62.949 402.812 63.3789 400.633 63.3789C397.537 63.3789 394.666 62.5787 392.018 60.9789C389.371 59.3796 387.273 57.2142 385.725 54.4827C384.177 51.7507 383.405 48.7518 383.405 45.4875C383.405 42.2222 384.184 39.2244 385.741 36.4923C387.3 33.7608 389.398 31.5955 392.035 29.9956C394.671 28.3963 397.537 27.5961 400.633 27.5961C404.642 27.5961 407.977 28.9996 410.635 31.8075V14.4058Z" fill="#448D3E"/>
</g>
</svg>