<?xml version="1.0" standalone="no"?>
<!DOCTYPE svg PUBLIC "-//W3C//DTD SVG 1.1//EN" "http://www.w3.org/Graphics/SVG/1.1/DTD/svg11.dtd">
<svg width="200" height="195" viewBox="0 0 200 195" fill="none" xmlns="http://www.w3.org/2000/svg">
<mask id="mask0_101_420" style="mask-type:luminance" maskUnits="userSpaceOnUse" x="17" y="11" width="165" height="172">
<path d="M182 11H17V182.473H182V11Z" fill="white"/>
</mask>
<g mask="url(#mask0_101_420)">
<path d="M172.612 77.1031L147.105 46.7953L128.457 24.418C127.074 22.7774 125.554 21.2573 123.914 19.874C122.857 18.9567 121.74 18.1117 120.57 17.3447C119.192 16.4565 117.76 15.6548 116.283 14.9441C110.948 12.2876 105.06 10.93 99.0997 10.9821C93.1397 11.0343 87.2765 12.4947 81.9884 15.2442C80.7779 15.8775 79.6043 16.5788 78.4732 17.3447C77.303 18.1117 76.1858 18.9567 75.1295 19.874C73.4887 21.2573 71.9686 22.7774 70.5854 24.418L51.8948 46.7953L26.1738 77.1031C21.5472 82.606 18.5934 89.3191 17.6619 96.4479C16.7304 103.577 17.8601 110.823 20.9175 117.33C23.9748 123.837 28.8319 129.333 34.914 133.166C40.9963 137 48.0492 139.011 55.2386 138.962H143.762C150.933 138.97 157.957 136.929 164.007 133.079C170.057 129.23 174.882 123.732 177.913 117.233C180.944 110.734 182.056 103.504 181.116 96.3946C180.177 89.2852 177.227 82.5922 172.612 77.1031ZM143.762 128.545H55.2386C50.0822 128.497 45.0437 126.997 40.7009 124.216C36.3581 121.436 32.8869 117.488 30.6852 112.825C28.4835 108.162 27.6405 102.973 28.2529 97.8525C28.8652 92.7324 30.9081 87.8885 34.1473 83.8764L65.141 47.0096H133.73L164.767 83.8764C168.131 87.8756 170.284 92.7529 170.97 97.9339C171.657 103.115 170.849 108.384 168.642 113.122C166.436 117.86 162.922 121.868 158.514 124.677C154.106 127.485 148.988 128.976 143.762 128.974V128.545Z" fill="white"/>
<path d="M36.4622 142.348C31.4895 139.647 25.2307 141.534 20.1723 150.922C15.1138 160.31 16.8714 170.77 20.1723 172.356C23.4731 173.942 33.1185 169.612 38.1769 160.567C43.2355 151.522 41.435 145.049 36.4622 142.348Z" fill="white"/>
<path d="M178.828 150.709C173.769 141.535 167.51 139.649 162.538 142.136C157.565 144.622 155.808 151.181 160.823 160.355C165.839 169.528 175.613 173.901 178.956 172.315C182.3 170.729 183.843 159.926 178.828 150.709Z" fill="white"/>
<path d="M99.4787 148.179C93.82 148.179 89.233 152.851 89.233 163.354C89.233 173.857 95.8777 182.473 99.4787 182.473C103.08 182.473 109.767 173.9 109.767 163.483C109.767 153.066 105.18 148.179 99.4787 148.179Z" fill="white"/>
<path d="M117.14 70.1593C112.389 65.9462 106.21 63.7033 99.8623 63.8879C93.5148 64.0724 87.4764 66.6705 82.9779 71.1527C78.4793 75.6348 75.8593 81.6636 75.6516 88.0105C75.4438 94.3573 77.6639 100.545 81.8597 105.311C86.5325 109.984 92.8703 112.609 99.4785 112.609C102.751 112.609 105.991 111.965 109.014 110.712C112.037 109.46 114.784 107.625 117.097 105.311C119.411 102.998 121.246 100.251 122.499 97.2277C123.751 94.2046 124.395 90.9645 124.395 87.6923C124.395 84.4202 123.751 81.1801 122.499 78.1572C121.246 75.134 119.411 72.3873 117.097 70.0735L117.14 70.1593Z" fill="white"/>
</g>
</svg>