<?xml version="1.0" standalone="no"?>
<!DOCTYPE svg PUBLIC "-//W3C//DTD SVG 1.1//EN" "http://www.w3.org/Graphics/SVG/1.1/DTD/svg11.dtd">
<svg width="420" height="87" viewBox="0 0 420 87" fill="none" xmlns="http://www.w3.org/2000/svg">
<g clip-path="url(#clip0_101_312)">
<path d="M77.989 33.1607L65.2216 17.9517L55.8027 6.73668C55.1111 5.90961 54.3504 5.14296 53.5289 4.44505C52.9945 3.99534 52.4375 3.57322 51.8601 3.18033C51.1941 2.7381 50.5014 2.33739 49.7862 1.98047C47.1151 0.652728 44.1686 -0.0255593 41.1863 0.000736395C38.2039 0.0270321 35.2699 0.757169 32.6225 2.1318C32.0129 2.44789 31.4215 2.79795 30.8511 3.18033C30.2718 3.57056 29.7146 3.99279 29.1823 4.44505C28.359 5.14286 27.5965 5.90951 26.9031 6.73668L17.4842 17.9517L4.71675 33.1607C-5.60413 45.4458 3.12893 64.2004 19.1692 64.2004H63.542C79.5823 64.2004 88.3046 45.4458 77.989 33.1607ZM63.542 59.1037H19.1746C16.5549 59.1055 13.9892 58.3583 11.7795 56.9501C9.56973 55.5419 7.80798 53.5312 6.70155 51.1549C5.5951 48.7786 5.19004 46.1353 5.534 43.5363C5.87797 40.9374 6.95666 38.4908 8.6431 36.4847L24.1812 17.9786H58.5409L74.0789 36.4847C75.763 38.4915 76.8398 40.9378 77.1825 43.536C77.5249 46.1341 77.1198 48.7763 76.0137 51.1518C74.9077 53.5273 73.147 55.5375 70.9387 56.9461C68.7304 58.3547 66.1661 59.1032 63.5473 59.1037H63.542Z" fill="white"/>
<path d="M9.75035 65.8864C7.26063 64.5244 4.11738 65.4756 1.58982 70.0859C-0.93774 74.6962 -0.0628173 80.0363 1.53041 80.8957C3.12364 81.7551 8.08151 79.6256 10.6091 75.0151C13.1367 70.4048 12.2401 67.2538 9.75035 65.8864Z" fill="white"/>
<path d="M81.1158 70.0859C78.5935 65.4756 75.4451 64.5244 72.9553 65.8864C70.4656 67.2484 69.5745 70.4156 72.1021 75.0313C74.6296 79.6473 79.5443 81.8086 81.1809 80.912C82.8175 80.0146 83.6435 74.7016 81.1158 70.0859Z" fill="white"/>
<path d="M41.3557 68.887C38.5149 68.887 36.2142 71.2326 36.2142 76.4915C36.2142 81.7504 39.5356 86.0148 41.3557 86.0148C43.1757 86.0148 46.4972 81.7504 46.4972 76.4915C46.4972 71.2326 44.1911 68.887 41.3557 68.887Z" fill="white"/>
<path d="M50.186 29.6749C47.819 27.4665 44.6881 26.2635 41.4525 26.3192C38.217 26.3749 35.1293 27.685 32.8397 29.9735C30.55 32.262 29.2372 35.3504 29.1775 38.5883C29.1179 41.8262 30.3162 44.9609 32.52 47.3323C33.6719 48.5288 35.0506 49.4835 36.5754 50.1406C38.1003 50.7977 39.7407 51.1441 41.4008 51.1594C43.0609 51.1748 44.7074 50.8587 46.2442 50.2299C47.7808 49.6011 49.1768 48.672 50.3506 47.497C51.5244 46.322 52.4523 44.9247 53.0802 43.3867C53.7081 41.8487 54.0233 40.2008 54.0075 38.5394C53.9917 36.8781 53.6451 35.2365 52.988 33.7107C52.3309 32.185 51.3765 30.8056 50.1805 29.6532L50.186 29.6749Z" fill="white"/>
<path d="M112.273 61.9257H103.325L108.93 15.85H118.955L129.999 49.4948L141.005 15.8175H151.035L156.668 61.9257H147.714L144.37 30.0375L133.898 61.9257H126.197L115.746 30.0375L112.273 61.9257Z" fill="white"/>
<path d="M190.633 27.5295H197.908V61.9255H190.601L190.012 57.8882C188.73 59.376 187.159 60.5877 185.394 61.45C183.539 62.3298 181.507 62.7717 179.453 62.7416C176.405 62.7608 173.411 61.9258 170.812 60.3311C168.175 58.7467 166 56.4972 164.504 53.8076C162.972 51.0433 162.168 47.9344 162.168 44.7735C162.168 41.6125 162.972 38.5035 164.504 35.7394C166.006 33.0544 168.18 30.8063 170.812 29.2157C173.411 27.6195 176.405 26.7844 179.453 26.8052C181.531 26.7727 183.589 27.2222 185.465 28.1186C187.241 28.9881 188.819 30.2154 190.098 31.7236L190.633 27.5295ZM185.162 53.4724C186.654 52.6251 187.889 51.3909 188.737 49.8999C189.62 48.3363 190.071 46.5661 190.045 44.7708C190.068 42.9637 189.618 41.182 188.737 39.6038C187.892 38.0976 186.657 36.8469 185.162 35.9825C183.651 35.1048 181.931 34.6511 180.182 34.6692C178.452 34.6498 176.749 35.1039 175.257 35.9825C173.78 36.8468 172.568 38.0991 171.752 39.6038C170.888 41.1871 170.447 42.9669 170.472 44.7708C170.446 46.5679 170.887 48.341 171.752 49.9161C172.563 51.4065 173.771 52.6431 175.241 53.4887C176.74 54.3494 178.443 54.7918 180.171 54.7696C181.92 54.7926 183.642 54.3485 185.162 53.4833V53.4724Z" fill="white"/>
<path d="M232.506 27.4962H239.419V56.8118C239.481 59.961 238.813 63.0818 237.469 65.9297C236.187 68.557 234.128 70.7254 231.571 72.1398C228.94 73.6423 225.699 74.3918 221.85 74.3882C219.187 74.3733 216.535 74.032 213.954 73.3721C211.62 72.8485 209.387 71.9524 207.338 70.7183L210.449 64.1893C213.685 65.9984 217.327 66.9579 221.034 66.9782C223.011 67.0483 224.97 66.5953 226.716 65.6648C228.179 64.853 229.356 63.6116 230.091 62.1085C230.837 60.5263 231.206 58.793 231.171 57.0442V56.2551C229.922 57.515 228.437 58.5176 226.802 59.2061C225.05 59.9262 223.171 60.2829 221.277 60.2547C218.363 60.2936 215.489 59.5648 212.944 58.1413C210.472 56.7632 208.418 54.7404 207.003 52.288C205.541 49.7356 204.795 46.8357 204.843 43.8943C204.827 40.9166 205.582 37.9854 207.035 35.3872C208.439 32.8101 210.486 30.6408 212.976 29.0906C215.459 27.5333 218.336 26.7194 221.266 26.7449C223.29 26.7107 225.296 27.1356 227.132 27.988C228.863 28.8213 230.402 30.0047 231.652 31.4633L232.506 27.4962ZM227.035 51.6988C228.405 50.9166 229.538 49.7772 230.313 48.4019C231.102 46.9969 231.508 45.4088 231.491 43.797C231.509 42.1268 231.104 40.4792 230.313 39.0084C229.546 37.5879 228.407 36.4032 227.019 35.5817C225.586 34.7322 223.947 34.2946 222.282 34.317C220.63 34.2914 219.004 34.7235 217.583 35.5655C216.215 36.3807 215.094 37.5543 214.343 38.9598C213.564 40.4035 213.165 42.0214 213.182 43.6619C213.157 45.2999 213.557 46.9162 214.343 48.3533C215.103 49.7356 216.223 50.8861 217.583 51.6826C219.009 52.5105 220.633 52.9346 222.282 52.9095C223.94 52.9333 225.575 52.5154 227.019 51.6988H227.035Z" fill="white"/>
<path d="M250.036 20.9574C249.263 20.5127 248.618 19.8737 248.167 19.1035C247.728 18.3704 247.497 17.5315 247.498 16.6768C247.499 15.8172 247.73 14.9736 248.167 14.2338C248.619 13.4553 249.262 12.8057 250.036 12.3475C250.859 11.8773 251.789 11.6301 252.737 11.6301C253.684 11.6301 254.615 11.8773 255.437 12.3475C256.211 12.8057 256.855 13.4553 257.306 14.2338C257.743 14.9736 257.975 15.8172 257.975 16.6768C257.976 17.5315 257.745 18.3704 257.306 19.1035C256.855 19.8737 256.211 20.5127 255.437 20.9574C254.611 21.4174 253.682 21.6588 252.737 21.6588C251.792 21.6588 250.862 21.4174 250.036 20.9574ZM256.868 61.9257H248.513V27.4971H256.868V61.9257Z" fill="white"/>
<path d="M272.471 60.4233C269.781 58.8453 267.558 56.5811 266.028 53.8618C264.489 51.097 263.681 47.9845 263.681 44.8197C263.681 41.6548 264.489 38.5423 266.028 35.7774C267.583 33.0237 269.848 30.7379 272.587 29.158C275.325 27.578 278.438 26.762 281.598 26.7947C283.962 26.7721 286.307 27.1995 288.511 28.054C290.579 28.8645 292.48 30.0499 294.117 31.5509L289.921 37.5502C288.833 36.5799 287.595 35.7931 286.254 35.2207C284.91 34.6814 283.473 34.4132 282.025 34.4316C280.256 34.4195 278.518 34.8904 276.997 35.7936C275.462 36.6977 274.194 37.9941 273.325 39.55C272.41 41.1699 271.941 43.0028 271.963 44.8629C271.946 46.6697 272.405 48.4492 273.294 50.0216C274.184 51.5941 275.472 52.9038 277.03 53.8186C278.54 54.719 280.267 55.1899 282.025 55.1806C283.478 55.1981 284.92 54.93 286.27 54.3916C287.606 53.8317 288.848 53.0698 289.953 52.1323L294.117 58.0776C292.487 59.5865 290.584 60.7714 288.511 61.5691C286.326 62.4249 283.999 62.8596 281.653 62.85C278.428 62.8952 275.253 62.0559 272.471 60.4233Z" fill="white"/>
<path d="M305.205 61.925V15.8221H323.027C325.979 15.7581 328.9 16.4226 331.533 17.757C333.885 18.9683 335.84 20.8291 337.167 23.1186C338.517 25.512 339.201 28.2238 339.149 30.9718C339.21 33.8228 338.551 36.6431 337.231 39.1708C335.976 41.5053 334.047 43.4075 331.696 44.6297C329.045 45.9755 326.101 46.6405 323.13 46.5645H314.084V61.925H305.205ZM322.439 38.5438C323.853 38.5701 325.25 38.2432 326.506 37.5926C327.656 36.9872 328.614 36.0716 329.271 34.9497C329.953 33.7722 330.299 32.4297 330.27 31.069C330.299 29.7496 329.959 28.4484 329.287 27.3127C328.628 26.2261 327.667 25.3548 326.522 24.8049C325.248 24.1969 323.85 23.8934 322.439 23.9185H314.084V38.5438H322.439Z" fill="white"/>
<path d="M351.732 60.4386C349.015 58.8739 346.756 56.6224 345.181 53.9096C343.577 51.1725 342.745 48.0513 342.773 44.8782C342.773 40.0605 344.685 35.44 348.089 32.0333C351.493 28.6266 356.11 26.7128 360.924 26.7128C365.739 26.7128 370.356 28.6266 373.76 32.0333C377.164 35.44 379.076 40.0605 379.076 44.8782C379.097 48.0403 378.275 51.1508 376.694 53.8889C375.113 56.627 372.832 58.8935 370.084 60.4548C367.275 62.0562 364.092 62.8825 360.86 62.8492C357.656 62.8794 354.504 62.0468 351.732 60.4386ZM365.904 53.6502C367.395 52.7694 368.624 51.5063 369.463 49.9912C370.325 48.4063 370.776 46.6309 370.776 44.8269C370.776 43.0228 370.325 41.2475 369.463 39.6627C368.619 38.1424 367.385 36.8755 365.887 35.9928C364.385 35.1116 362.675 34.6471 360.933 34.6471C359.191 34.6471 357.48 35.1116 355.977 35.9928C354.49 36.881 353.264 38.1471 352.423 39.6627C351.541 41.2458 351.088 43.033 351.111 44.8459C351.076 46.6591 351.521 48.4493 352.402 50.0344C353.242 51.5428 354.469 52.8001 355.955 53.6772C357.466 54.5449 359.177 55.0015 360.919 55.0015C362.661 55.0015 364.372 54.5449 365.882 53.6772L365.904 53.6502Z" fill="white"/>
<path d="M411.223 13.531H419.642V61.9255H412.351L411.763 57.8881C410.48 59.376 408.909 60.5877 407.145 61.4499C405.289 62.3297 403.257 62.7716 401.204 62.7416C398.155 62.7607 395.162 61.9257 392.563 60.3311C389.927 58.7451 387.752 56.496 386.254 53.8075C384.722 51.0433 383.919 47.9343 383.919 44.7734C383.919 41.6125 384.722 38.5035 386.254 35.7393C387.758 33.0555 389.932 30.8079 392.563 29.2157C395.161 27.6194 398.155 26.7843 401.204 26.8051C403.079 26.7579 404.943 27.1108 406.672 27.8406C408.4 28.5702 409.953 29.6599 411.228 31.0371L411.223 13.531ZM406.902 53.4832C408.394 52.6374 409.629 51.4028 410.477 49.9106C411.36 48.3471 411.811 46.5769 411.784 44.7815C411.808 42.9744 411.357 41.1928 410.477 39.6145C409.633 38.1073 408.397 36.8562 406.902 35.9933C405.39 35.1156 403.67 34.6619 401.922 34.6799C400.195 34.6625 398.496 35.1166 397.008 35.9933C395.531 36.8576 394.319 38.1099 393.503 39.6145C392.639 41.1979 392.198 42.9776 392.223 44.7815C392.196 46.5787 392.637 48.3518 393.503 49.9268C394.313 51.4173 395.521 52.6539 396.991 53.4994C398.491 54.3602 400.194 54.8025 401.922 54.7803C403.666 54.7971 405.383 54.3495 406.896 53.4832H406.902Z" fill="white"/>
</g>
<defs>
<clipPath id="clip0_101_312">
<rect width="420" height="86.0148" fill="white"/>
</clipPath>
</defs>
</svg>