<?xml version="1.0" standalone="no"?>
<!DOCTYPE svg PUBLIC "-//W3C//DTD SVG 1.1//EN" "http://www.w3.org/Graphics/SVG/1.1/DTD/svg11.dtd">
<svg width="200" height="195" viewBox="0 0 200 195" fill="none" xmlns="http://www.w3.org/2000/svg">
<path d="M129.058 21.8336L173.766 75.1319C194.558 99.92 176.967 137.745 144.646 137.745H55.2312C22.9108 137.745 5.31839 99.92 26.1104 75.1319L70.819 21.8336C86.0183 3.71351 113.859 3.71351 129.058 21.8336Z" fill="#448D3E"/>
<path d="M148.084 44.4588L129.107 21.8341C113.907 3.714 86.0658 3.714 70.8669 21.8341L51.888 44.4588H148.084Z" fill="#375968"/>
<path d="M25.5208 123.445C32.2411 131.966 42.6235 137.745 55.2576 137.745H144.672C157.306 137.745 167.689 131.966 174.409 123.445H25.5208Z" fill="#375968"/>
<path d="M38.0416 159.589C32.9538 168.895 23.0372 173.262 19.744 171.455C16.5335 169.693 14.7835 158.927 19.8713 149.621C24.9591 140.316 31.2952 138.398 36.3134 141.15C41.3305 143.903 43.1283 150.284 38.0416 159.589Z" fill="#F68424"/>
<path d="M161.958 159.589C167.046 168.895 176.961 173.262 180.254 171.455C183.466 169.693 185.215 158.927 180.128 149.621C175.04 140.316 168.703 138.398 163.686 141.15C158.668 143.903 156.87 150.284 161.958 159.589Z" fill="#F68424"/>
<path d="M110.364 162.541C110.364 173.151 103.762 181.752 100.007 181.752C96.345 181.752 89.6483 173.151 89.6483 162.541C89.6483 151.932 94.2858 147.199 100.007 147.199C105.727 147.199 110.364 151.932 110.364 162.541Z" fill="#F68424"/>
<path d="M36.2703 141.151C31.4099 138.484 25.3143 140.223 20.3125 148.792C26.8086 150.548 33.5506 152.097 40.5103 153.419C42.0296 147.44 40.0848 143.243 36.2703 141.151Z" fill="#EF5236"/>
<path d="M163.678 141.151C159.862 143.243 157.918 147.44 159.438 153.419C166.396 152.097 173.138 150.548 179.634 148.792C174.633 140.223 168.538 138.484 163.678 141.151Z" fill="#EF5236"/>
<path d="M100.037 147.199C95.0584 147.199 90.905 150.786 89.9092 158.706C93.2608 158.807 96.6359 158.863 100.037 158.863C103.438 158.863 106.813 158.807 110.164 158.706C109.168 150.786 105.014 147.199 100.037 147.199Z" fill="#EF5236"/>
<path d="M117.751 102.228C127.579 92.3833 127.579 76.4218 117.754 66.5763C113.286 73.5818 107.998 80.2142 101.887 86.3358C95.7758 92.4575 89.155 97.755 82.1615 102.231C91.99 112.073 107.923 112.073 117.751 102.228Z" fill="#9BD5BD"/>
<path d="M117.838 66.5759C117.837 66.5748 117.838 66.577 117.838 66.5759C108.009 56.7303 92.0709 56.7271 82.2412 66.5727C72.4127 76.4182 72.4127 92.3817 82.2412 102.228C82.2401 102.226 82.2423 102.228 82.2412 102.228C89.2343 97.7508 95.8592 92.4567 101.97 86.3358C108.081 80.2142 113.369 73.5815 117.838 66.5759Z" fill="#DBC9E9"/>
<path d="M117.838 66.5759C117.837 66.5748 117.838 66.577 117.838 66.5759C108.009 56.7303 92.0709 56.7271 82.2412 66.5727C72.4127 76.4182 72.4127 92.3817 82.2412 102.228C82.2401 102.226 82.2423 102.228 82.2412 102.228C89.2343 97.7508 95.8592 92.4567 101.97 86.3358C108.081 80.2142 113.369 73.5815 117.838 66.5759Z" fill="white"/>
</svg>
